#!OML:ASF F:\VICON\USERDATA\INSTALL\rory3\rory3.ASF
:FULLY-SPECIFIED
:DEGREES
203
root -6.4705 16.3623 -18.4848 370.749 58.7241 3.22062
lowerback 1.59595 0.531343 0.215757
upperback -5.59247 0.922 2.11433
thorax -6.74427 0.54184 2.01299
lowerneck -8.31356 -19.968 -13.8311
upperneck 20.545 -28.0493 10.3438
head 11.4492 -12.9796 1.52719
rclavicle 2.43014e-014 2.3059e-014
rhumerus -111.951 -71.2081 95.6174
rradius 13.2739
rwrist 74.2915
rhand -4.83858 2.62726
rfingers 7.12502
rthumb 20.9485 -26.2615
lclavicle 2.43014e-014 2.3059e-014
lhumerus -207.183 -213.022 176.876
lradius 16.6808
lwrist -59.6627
lhand 1.1697 29.043
lfingers 7.12502
lthumb 26.7103 57.1779
rfemur 123.551 -192.141 -215.993
rtibia 38.5957
rfoot -71.3593 -6.65448
rtoes 62.5165
lfemur -9.38255 0.605746 -27.2385
ltibia 29.6391
lfoot -36.8052 26.0479
ltoes -12.359
204
root -6.48722 16.3425 -18.3306 370.171 59.1259 2.21881
lowerback 1.35348 -0.0457114 0.775889
upperback -6.16786 0.200575 2.13428
thorax -7.1927 0.16398 1.77757
lowerneck -6.91901 -19.5533 -12.6629
upperneck 20.2096 -27.5638 9.80377
head 10.7427 -12.8425 1.52071
rclavicle -8.29926e-014 -4.77083e-015
rhumerus -128.066 -66.1516 113.884
rradius 13.7007
rwrist 85.332
rhand -6.9072 9.11438
rfingers 7.12502
rthumb 18.9601 -19.9815
lclavicle -8.29926e-014 -4.77083e-015
lhumerus -205.431 -210.048 177.782
lradius 16.8785
lwrist -58.5803
lhand -0.0577344 28.9343
lfingers 7.12502
lthumb 25.5351 57.243
rfemur 125.192 -190.317 -211.536
rtibia 38.8716
rfoot -69.0173 -10.6367
rtoes 62.6214
lfemur -10.0535 0.615294 -26.054
ltibia 30.6727
lfoot -37.2923 25.7742
ltoes -12.8495
205
root -6.50442 16.3247 -18.1744 370.22 59.4618 1.95581
lowerback 0.653328 -0.285965 0.975664
upperback -5.92099 -0.112502 2.50647
thorax -6.51599 0.00790147 2.06901
lowerneck -7.33588 -19.7587 -13.1947
upperneck 19.9989 -27.7362 9.8762
head 10.8519 -12.9335 1.5183
rclavicle 3.04638e-014 3.89618e-014
rhumerus -119.8 -66.5088 106.774
rradius 13.8874
rwrist 84.413
rhand -5.46949 -4.79524
rfingers 7.12502
rthumb 20.3423 -33.7499
lclavicle 3.04638e-014 3.89618e-014
lhumerus -203.536 -209.969 179.746
lradius 16.8838
lwrist -58.9943
lhand -1.06538 28.4173
lfingers 7.12502
lthumb 24.5695 56.8607
rfemur 126.708 -189.358 -208.321
rtibia 39.2741
rfoot -67.2962 -14.021
rtoes 62.7238
lfemur -10.5475 0.0232598 -25.3504
ltibia 31.5588
lfoot -37.4077 26.0862
ltoes -14.5978
206
root -6.51475 16.3142 -18.0249 370.794 59.8257 2.35651
lowerback 0.128476 -0.64957 1.02395
upperback -5.99261 -0.597442 2.64641
thorax -6.2751 -0.229502 2.2112
lowerneck -7.01565 -19.8072 -13.4465
upperneck 19.8587 -27.7651 9.80327
head 10.7722 -12.9934 1.55213
rclavicle 5.96354e-015 9.54166e-015
rhumerus -110.906 -66.1682 98.705
rradius 13.8404
rwrist 82.5833
rhand -6.73303 0.436752
rfingers 7.12502
rthumb 19.1276 -28.6427
lclavicle 5.96354e-015 9.54166e-015
lhumerus -201.524 -207.565 181.813
lradius 17.07
lwrist -57.7769
lhand -2.01633 28.3071
lfingers 7.12502
lthumb 23.6577 56.8714
rfemur 128.274 -188.157 -205.467
rtibia 39.6955
rfoot -65.316 -17.6736
rtoes 62.7089
lfemur -11.0068 -0.48312 -25.0092
ltibia 32.4512
lfoot -37.0229 26.3682
ltoes -16.7419
207
root -6.52061 16.3139 -17.8702 371.25 60.1046 2.68867
lowerback -0.348398 -1.0932 1.1197
upperback -6.1899 -1.18222 2.7729
thorax -6.19283 -0.517928 2.31463
lowerneck -6.92843 -19.6946 -13.3976
upperneck 20.3399 -27.5067 9.10664
head 10.7795 -12.9294 1.38079
rclavicle 5.34234e-014 -2.94201e-014
rhumerus -101.08 -65.7439 89.3121
rradius 14.0113
rwrist 81.0507
rhand -6.59713 3.28926
rfingers 7.12502
rthumb 19.2583 -25.7772
lclavicle 5.34234e-014 -2.94201e-014
lhumerus -199.76 -204.079 183.623
lradius 17.466
lwrist -56.0891
lhand -2.03585 28.3467
lfingers 7.12502
lthumb 23.639 56.9135
rfemur 129.745 -186.582 -202.412
rtibia 40.154
rfoot -62.974 -21.7715
rtoes 62.4968
lfemur -11.4042 -0.50905 -24.5429
ltibia 33.2922
lfoot -36.6356 25.8414
ltoes -17.0868
208
root -6.53212 16.3197 -17.699 371.647 60.2235 2.99777
lowerback -0.732058 -1.52253 1.26223
upperback -6.46978 -1.74585 2.81289
thorax -6.25666 -0.800204 2.29998
lowerneck -6.80081 -19.5243 -13.5367
upperneck 21.1348 -27.2011 8.47782
head 10.9333 -12.839 1.24594
rclavicle 4.57205e-015 -1.11319e-014
rhumerus -95.9515 -64.9164 84.7228
rradius 14.1561
rwrist 81.1531
rhand -6.22008 1.87408
rfingers 7.12502
rthumb 19.6208 -27.1558
lclavicle 4.57205e-015 -1.11319e-014
lhumerus -197.969 -199.501 185.277
lradius 18.0757
lwrist -53.5057
lhand -1.0068 29.0052
lfingers 7.12502
lthumb 24.6257 57.441
rfemur 131.026 -184.325 -199.018
rtibia 40.7025
rfoot -59.4722 -27.1329
rtoes 62.1023
lfemur -11.7341 -0.394075 -24.0053
ltibia 34.0473
lfoot -35.8185 25.7248
ltoes -18.2038
209
root -6.5396 16.3295 -17.5135 372.111 60.3016 3.51147
lowerback -1.22623 -2.04589 1.18053
upperback -6.72573 -2.44194 2.93461
thorax -6.21731 -1.13454 2.49225
lowerneck -6.27538 -19.2199 -14.1474
upperneck 21.9632 -26.7602 8.16134
head 11.1386 -12.7076 1.31618
rclavicle 8.05078e-015 1.11319e-014
rhumerus -100.806 -64.78 90.9811
rradius 14.0997
rwrist 85.3961
rhand -6.90073 0.369946
rfingers 7.12502
rthumb 18.9663 -28.7254
lclavicle 8.05078e-015 1.11319e-014
lhumerus -196.6 -197.76 186.207
lradius 18.2441
lwrist -53.3834
lhand -0.593394 29.3246
lfingers 7.12502
lthumb 25.0219 57.7058
rfemur 132.374 -182.621 -196.114
rtibia 41.2738
rfoot -56.6259 -30.4069
rtoes 62.0182
lfemur -11.9043 -0.172865 -23.5128
ltibia 34.7746
lfoot -34.3746 26.0175
ltoes -20.4376
210
root -6.54021 16.3475 -17.3222 372.69 60.2054 4.21891
lowerback -1.93664 -2.47165 0.938829
upperback -6.88293 -3.01972 3.05136
thorax -5.94027 -1.40468 2.74125
lowerneck -5.81707 -18.8606 -14.8526
upperneck 22.7712 -26.2407 7.94088
head 11.3702 -12.5396 1.43588
rclavicle -4.37326e-015 9.54166e-015
rhumerus -102.324 -63.914 93.6428
rradius 14.2296
rwrist 87.7328
rhand -7.25763 5.25166
rfingers 7.12502
rthumb 18.623 -23.8769
lclavicle -4.37326e-015 9.54166e-015
lhumerus -195.025 -202.129 186.509
lradius 17.119
lwrist -58.807
lhand -2.00892 26.8996
lfingers 7.12502
lthumb 23.6648 55.463
rfemur 133.694 -181.456 -193.687
rtibia 41.7974
rfoot -54.4102 -32.6145
rtoes 62.0088
lfemur -12.0032 0.183202 -23.1245
ltibia 35.5397
lfoot -32.4981 26.1609
ltoes -22.8829
211
root -6.5468 16.3687 -17.1332 373.267 59.7341 4.81624
lowerback -2.67427 -2.65402 0.931663
upperback -6.98607 -3.27785 2.97979
thorax -5.6226 -1.53611 2.64234
lowerneck -6.0956 -18.6246 -15.0551
upperneck 23.8349 -25.82 7.40628
head 11.7243 -12.374 1.30207
rclavicle 2.60408e-014 4.6118e-014
rhumerus -116.445 -60.9556 110.386
rradius 14.7364
rwrist 96.6109
rhand -7.19146 3.22291
rfingers 7.12502
rthumb 18.6867 -25.8995
lclavicle 2.60408e-014 4.6118e-014
lhumerus -192.974 -199.434 188.169
lradius 17.1902
lwrist -56.9586
lhand -1.11318 27.9505
lfingers 7.12502
lthumb 24.5237 56.4002
rfemur 134.603 -180.236 -191.308
rtibia 42.2492
rfoot -51.7301 -35.0198
rtoes 61.8661
lfemur -12.2373 0.30157 -22.7844
ltibia 36.373
lfoot -30.9851 26.3015
ltoes -24.765
212
root -6.56438 16.3985 -16.9347 373.007 58.987 4.47583
lowerback -3.12094 -2.74974 1.56057
upperback -7.22553 -3.40349 2.85448
thorax -5.66495 -1.63242 2.15113
lowerneck -6.4001 -18.3199 -15.1698
upperneck 25.0706 -25.3374 6.92318
head 12.1475 -12.1682 1.17871
rclavicle -6.44062e-014 0
rhumerus -112.132 -60.5686 106.315
rradius 14.711
rwrist 95.8585
rhand -6.96734 4.32017
rfingers 7.12502
rthumb 18.9022 -24.7814
lclavicle -6.44062e-014 0
lhumerus -190.988 -196.561 189.392
lradius 17.2244
lwrist -55.1975
lhand -2.70487 29.5787
lfingers 7.12502
lthumb 22.9972 58.2268
rfemur 135.29 -180.155 -188.827
rtibia 42.7148
rfoot -49.8202 -36.8508
rtoes 61.7441
lfemur -12.458 0.7145 -21.8674
ltibia 37.2267
lfoot -29.9527 25.8904
ltoes -24.8693
